<?xml version="1.0" encoding="UTF-8"?>
<svg id="Layer_1" xmlns="http://www.w3.org/2000/svg" version="1.1" viewBox="0 0 160 160">
  <!-- Generator: Adobe Illustrator 29.2.1, SVG Export Plug-In . SVG Version: 2.1.0 Build 116)  -->
  <defs>
    <style>
      .st0 {
        font-family: FuturaBT-Medium, 'Futura Md BT';
        font-size: 15.77px;
        font-weight: 500;
      }

      .st0, .st1, .st2 {
        fill: #3a3a3a;
      }

      .st1 {
        font-family: MyriadPro-Regular, 'Myriad Pro';
        font-size: 7px;
        letter-spacing: .01em;
      }

      .st3 {
        fill: none;
      }

      .st4 {
        fill: #6cb28e;
      }
    </style>
  </defs>
  <path class="st3" d="M96.68,69.96"/>
  <path class="st4" d="M75.25,52.58l12.71-4.58c3.35-1.21,5.02-1.81,5.58-3.45,1.07-3.12-3.46-8.76-5.67-10.7.53,2.9-4.16,4.51-6,4.74.31-2.69-1.47-2.91-2.37-3.02h0c-1.93,5.21-8.36,9.98-8.55,14.97-.09,2.16,2.55,2.67,4.29,2.04"/>
  <path class="st2" d="M75.87,107h.14c.14,0-29.25,0-29.25,0v-17.05h-7.57v17.34h0s.05,7.01.05,7.01c0,0,56.7-.46,56.7-.45,7.57-.06,14.51-2.73,19.97-7.17,7.42-5.98,12.13-15.2,12.04-25.5-.08-10.3-4.94-19.44-12.45-25.3-5.53-4.35-12.51-6.91-20.08-6.85l-19.97,7.17,19.23-.15c13.67-.11,25.55,10.34,26.26,24.05.75,14.55-10.71,26.63-25.06,26.74l-20.03.16"/>
  <path class="st3" d="M68.03,49.92"/>
  <path class="st2" d="M89.46,67.31l-12.71,4.58c-3.35,1.21-5.02,1.81-5.58,3.45-1.07,3.12,3.46,8.76,5.67,10.7-.53-2.9,4.16-4.51,6-4.74-.31,2.69,1.47,2.91,2.37,3.02h0c1.93-5.21,8.36-9.98,8.55-14.97.09-2.16-2.55-2.67-4.29-2.04"/>
  <path class="st4" d="M88.84,12.89h-.14c-.14,0,29.25,0,29.25,0v17.05h7.57V12.59h0s-.05-7.01-.05-7.01c0,0-56.7.46-56.7.45-7.57.06-14.51,2.73-19.97,7.17-7.42,5.98-12.13,15.2-12.04,25.5.08,10.3,4.94,19.44,12.45,25.3,5.53,4.35,12.51,6.91,20.08,6.85l19.97-7.17-19.23.15c-13.67.11-25.55-10.34-26.26-24.05-.75-14.55,10.71-26.63,25.06-26.74l20.03-.16"/>
  <text class="st0" transform="translate(25 133.6)"><tspan x="0" y="0">SHOEVENTORY</tspan></text>
  <text class="st1" transform="translate(43.84 142.88)"><tspan x="0" y="0">Cashier and Management</tspan></text>
</svg>